<?xml version="1.0" encoding="UTF-8" standalone="no"?>
<!-- Created with Inkscape (http://www.inkscape.org/) -->

<svg
   width="51.508999mm"
   height="51.508999mm"
   viewBox="0 0 51.508998 51.508999"
   version="1.1"
   id="svg1"
   sodipodi:docname="icon.svg"
   inkscape:version="1.3 (0e150ed, 2023-07-21)"
   xmlns:inkscape="http://www.inkscape.org/namespaces/inkscape"
   xmlns:sodipodi="http://sodipodi.sourceforge.net/DTD/sodipodi-0.dtd"
   xmlns="http://www.w3.org/2000/svg"
   xmlns:svg="http://www.w3.org/2000/svg">
  <sodipodi:namedview
     id="namedview1"
     pagecolor="#ffffff"
     bordercolor="#000000"
     borderopacity="0.25"
     inkscape:showpageshadow="2"
     inkscape:pageopacity="0.0"
     inkscape:pagecheckerboard="0"
     inkscape:deskcolor="#d1d1d1"
     inkscape:document-units="mm"
     inkscape:zoom="2.0094655"
     inkscape:cx="70.914381"
     inkscape:cy="161.73455"
     inkscape:window-width="1728"
     inkscape:window-height="1051"
     inkscape:window-x="0"
     inkscape:window-y="38"
     inkscape:window-maximized="1"
     inkscape:current-layer="layer1" />
  <defs
     id="defs1" />
  <g
     inkscape:label="Layer 1"
     inkscape:groupmode="layer"
     id="layer1"
     transform="translate(-147.68947,-55.82708)">
    <path
       id="path5"
       style="fill:#ffffff;stroke-width:1"
       d="M 171.09838 59.399472 L 170.99502 59.524529 C 170.82781 59.727264 170.27354 60.726484 169.93772 61.429839 C 169.2692 62.830302 168.65384 64.590733 168.27478 66.191822 L 168.24067 66.335483 L 168.47218 66.180453 C 168.75661 65.988488 169.71537 65.519904 169.75117 65.555685 C 169.76557 65.570065 169.51808 65.812609 169.20082 66.09467 C 167.40462 67.691637 166.27651 69.332842 165.62946 71.291252 L 165.48735 71.722751 L 165.10701 71.548084 C 164.05888 71.06729 163.05811 70.853265 161.60077 70.798259 C 161.09488 70.778969 160.68093 70.777038 160.68093 70.793608 C 160.68093 70.810308 160.9131 70.876733 161.19666 70.940886 C 161.96328 71.114456 163.10655 71.494997 163.85334 71.824036 C 164.52424 72.119645 165.19542 72.481789 165.25739 72.58213 C 165.27629 72.61249 165.27476 72.909282 165.25326 73.242038 L 165.21553 73.847169 L 165.0698 73.847169 C 164.82852 73.847169 163.59462 74.266462 163.08646 74.521029 C 162.39393 74.867982 161.78144 75.27519 161.1858 75.785035 L 160.9729 75.967453 L 161.47468 75.730775 C 162.50912 75.242682 164.45524 74.693112 165.14939 74.693112 L 165.37935 74.693112 L 165.46203 74.978883 C 165.50773 75.13603 165.54458 75.296856 165.54368 75.335967 C 165.54279 75.375077 165.1888 75.577743 164.75716 75.786585 C 164.17735 76.067131 163.80821 76.290816 163.34433 76.64183 C 162.6689 77.152952 161.65174 78.13006 162.10823 77.829355 C 162.76714 77.395303 163.97703 76.838055 165.13337 76.435641 L 165.85787 76.182943 L 166.10798 76.609274 C 166.81949 77.8229 167.59875 78.662946 168.80446 79.515557 L 169.35068 79.90158 L 169.3512 80.128439 C 168.59804 80.423281 168.2248 80.809106 167.17665 81.741261 C 166.59829 82.160531 166.03729 82.452096 165.43929 82.62286 C 164.94748 82.76332 163.89656 82.82039 163.2973 82.739132 C 162.05401 82.570538 160.98538 82.045309 159.96779 81.10254 C 159.93271 81.070042 159.88629 81.036735 159.84532 81.002804 L 160.52073 87.191057 C 161.02715 87.466424 161.71821 87.821556 162.26636 88.072657 C 163.51938 88.646621 164.87005 89.151153 166.49659 89.652922 C 167.0637 89.827877 167.58861 89.992398 167.66344 90.017758 L 167.79987 90.06375 L 167.79884 90.060133 L 167.7947 90.047213 L 167.70117 89.714934 C 167.63237 89.470481 167.58567 89.237318 167.53064 88.999732 C 167.27366 87.618745 167.27896 85.895304 167.74509 84.130779 C 168.06695 82.912304 168.57532 82.18802 169.13467 81.408464 C 169.07957 81.580437 169.01367 81.769864 168.9321 81.98724 C 168.52942 83.060441 168.22713 84.124601 168.08254 84.978272 C 167.98012 85.582894 167.96982 85.792441 167.99469 86.722869 C 168.01469 87.473181 168.05131 87.90615 168.12078 88.213734 C 168.21178 88.616574 168.29441 88.82376 168.29441 88.648332 C 168.29441 88.606992 168.41359 88.323567 168.559 88.018397 C 168.86809 87.369699 168.86434 87.35586 168.744 88.712928 C 168.6498 89.774852 168.61091 90.061579 168.37089 91.446611 C 168.01418 93.505657 167.51713 95.484569 167.08208 96.576531 C 166.79477 97.297965 166.78743 97.306893 166.50072 97.340825 C 166.01311 97.398595 165.64839 97.581203 165.27754 97.954224 C 164.89985 98.334128 164.74636 98.611492 164.64761 99.089039 C 164.57381 99.446045 164.61167 99.79954 164.75406 100.07864 L 164.85173 100.26985 C 165.13858 100.76822 165.9855 100.91308 166.93377 100.99383 L 168.75588 101.00417 C 169.45202 100.91657 169.9601 100.65888 170.30411 100.25434 C 170.30411 100.23704 170.34851 100.15938 170.40281 100.08226 C 170.45721 100.00506 170.82855 99.37278 171.2286 98.676661 C 171.62868 97.980533 172.05017 97.257114 172.16498 97.069524 L 172.37375 96.728459 L 172.25541 96.299545 C 172.07806 95.656896 172.05615 94.746415 172.20322 94.129652 C 172.41756 93.230611 172.98291 92.306704 173.64447 91.773723 C 173.91613 91.554889 174.72395 91.085393 174.8289 91.085393 C 174.8533 91.085393 174.77731 91.186595 174.65992 91.310185 C 173.12264 92.928904 172.48174 94.964012 172.97527 96.65973 C 173.08013 97.020423 173.33742 97.6776 173.3985 97.740284 C 173.4085 97.750464 173.49543 97.699436 173.59176 97.627113 C 174.10927 97.238976 174.65978 97.093846 175.48622 97.126885 C 176.01714 97.148135 176.16031 97.175177 176.61639 97.341342 C 177.10611 97.519771 177.50816 97.727515 177.81373 97.960942 C 177.92262 98.044162 177.89018 98.03941 177.62356 97.93252 C 176.21031 97.365837 174.33734 97.679791 173.37111 98.645138 C 172.92703 99.088843 172.77217 99.399787 172.7453 99.902426 L 172.72463 100.28586 C 172.75253 100.67763 172.74044 101.18099 175.48777 101.2424 L 178.58681 101.28787 C 182.62223 101.25187 183.58569 101.72289 185.06962 100.33961 C 185.08152 100.32851 185.32278 100.08054 185.61584 99.796489 L 186.14862 99.280242 L 186.36721 99.35724 C 187.43699 99.734703 188.99968 99.858291 190.17318 99.658513 C 192.21075 99.311648 193.72596 98.30316 194.5755 96.727943 C 195.18493 95.597844 195.42326 94.288273 195.24057 93.070802 C 195.07681 91.979501 194.85278 91.342626 194.02101 89.604863 C 193.44755 88.406801 193.34628 88.144565 193.25258 87.608086 C 193.15908 87.072685 193.3015 86.538008 193.64687 86.127556 C 193.85613 85.878862 194.24187 85.658625 194.73363 85.506405 C 195.55784 85.251293 195.82738 85.11788 196.07463 84.84288 C 196.61435 84.242592 196.54987 83.289755 195.93304 82.752568 C 194.93399 81.882521 192.91878 82.087601 191.44029 83.209905 C 190.2735 84.095587 189.68606 85.588049 189.85485 87.239116 C 189.94895 88.159186 190.09648 88.590941 190.91681 90.350037 C 191.72786 92.089455 191.9307 92.753504 191.9307 93.672832 C 191.9307 94.588187 191.65034 95.28284 191.05943 95.831873 C 190.21595 96.615602 188.86773 96.843363 187.42865 96.445273 L 187.13099 96.36259 L 187.10515 95.323894 C 187.07725 94.199679 187.00576 93.695531 186.74083 92.751441 C 186.42163 91.614162 185.85671 90.386376 185.16057 89.318059 C 184.33766 88.055206 183.61038 87.207958 181.71633 85.305901 C 180.31083 83.89431 179.26687 82.724204 179.26687 82.560849 C 179.26687 82.528439 179.57559 82.424827 179.95365 82.330372 C 180.79699 82.119681 181.26562 81.954567 182.00417 81.606902 L 182.57365 81.338701 L 183.03563 81.651344 C 183.87587 82.220621 184.49604 82.795071 185.68663 84.105974 C 185.83804 84.272669 185.82335 84.227919 185.54039 83.656389 C 185.11017 82.787449 184.66817 82.183018 183.92033 81.441537 L 183.28626 80.813152 L 183.41804 80.727886 C 183.49024 80.680916 183.69978 80.515526 183.88364 80.360466 C 184.06751 80.205406 184.24605 80.089813 184.28052 80.103118 C 184.37842 80.140888 185.19536 80.754598 185.69128 81.163001 C 185.93848 81.366539 186.58355 81.975028 187.12479 82.515373 L 188.10871 83.497742 L 187.87978 83.004233 C 187.2783 81.711064 186.46066 80.641316 185.34764 79.689189 C 185.11497 79.490182 184.91797 79.311922 184.90994 79.293348 C 184.90194 79.274778 185.00245 79.100197 185.13318 78.905258 C 185.26391 78.710311 185.45637 78.39626 185.56158 78.208143 C 185.72407 77.917552 185.77482 77.866562 185.89747 77.866562 C 186.265 77.866562 187.88701 78.248048 188.8637 78.564193 C 189.62149 78.809485 191.026 79.358138 191.28991 79.511939 C 191.60661 79.696493 191.52286 79.57912 191.12661 79.283013 C 189.68009 78.202034 188.25964 77.5238 186.39977 77.025786 L 186.18273 76.967392 L 186.33001 76.395334 C 186.5012 75.730536 186.64316 74.782879 186.64316 74.301921 C 186.64316 74.08017 186.69581 73.794319 186.79923 73.458562 C 187.12067 72.414311 187.41264 70.886826 187.5382 69.591098 C 187.71598 67.756771 187.62061 65.175948 187.32374 63.791452 L 187.26587 63.522218 L 186.90465 63.555807 C 185.88265 63.650797 184.17719 64.053621 182.71162 64.545928 C 181.58854 64.923177 179.59394 65.791319 178.65864 66.309644 L 178.31499 66.499814 L 178.63228 66.206808 C 179.00646 65.861286 179.81868 65.268486 180.09834 65.136589 C 180.20665 65.085509 180.29523 65.031763 180.29575 65.017217 C 180.29775 64.962837 179.84971 64.738681 179.28651 64.512338 C 178.27782 64.106949 177.18913 63.851878 175.99679 63.742359 L 175.26401 63.675697 L 174.88574 63.173402 C 173.96168 61.948267 172.55804 60.497462 171.60119 59.77826 L 171.09838 59.399472 z M 154.91539 64.984144 C 154.55986 64.984688 154.1944 65.050102 153.81829 65.179481 C 152.71296 65.559801 151.93589 66.580907 151.85407 67.761235 L 151.83237 68.081112 L 151.89438 68.861427 A 0.186 0.186 0 0 1 151.72437 69.060381 A 0.186 0.186 0 0 1 151.52334 68.890882 L 151.47374 68.269215 C 151.13582 68.35382 150.88493 68.537106 150.73425 68.832488 C 150.64355 69.010264 150.45004 69.220382 150.45933 69.748711 C 150.52623 71.475515 150.57926 72.588549 150.74406 74.268332 C 150.80376 75.046968 151.2741 79.557406 151.39984 79.771355 C 151.58749 80.090676 151.94315 80.314363 152.35017 80.377003 L 151.62101 72.294809 A 0.336 0.336 0 0 1 151.9259 71.931523 A 0.336 0.336 0 0 1 152.29126 72.236414 L 153.0354 80.482423 A 0.336 0.336 0 0 1 153.02403 80.600762 C 153.04888 80.894243 153.11836 81.653122 153.1186 81.680799 C 153.11877 81.699999 153.01356 81.766372 152.88502 81.828594 C 152.61728 81.958205 152.42913 82.182609 152.23751 82.601156 C 152.07104 82.964781 152.00903 83.769031 152.11297 84.215528 C 152.26384 84.863642 152.81145 85.588071 153.34339 85.843852 C 153.48724 85.913052 153.59454 86.000272 153.59454 86.048491 C 153.59454 86.122691 153.74929 87.877113 153.99141 90.55571 C 154.01758 90.845053 154.05306 91.27688 154.08753 91.687423 L 154.09993 91.732382 A 0.68599999 0.68599999 0 0 0 154.08391 92.25018 L 157.47285 100.87498 A 0.68606859 0.68606859 0 0 0 158.78698 100.7401 L 160.33004 91.77734 A 0.68599999 0.68599999 0 0 0 160.267 91.354627 L 160.26751 91.348943 C 160.17169 90.402702 160.0544 89.180042 159.99828 88.526376 L 159.99001 88.52741 L 158.93168 78.826193 L 158.9632 78.822576 C 158.85201 77.7301 158.73405 76.596899 158.61852 75.30031 C 158.55892 74.631426 158.49845 74.012958 158.48416 73.925717 C 158.46986 73.838477 158.38787 72.981673 158.30174 72.021957 C 158.22679 71.187473 158.17149 70.668385 158.10796 70.021562 A 0.53600001 0.53600001 0 0 0 158.11106 70.013811 C 158.15099 69.848462 158.10971 69.721239 158.07075 69.640707 C 157.92757 68.2143 157.80772 67.143743 157.75397 66.993323 C 157.53471 66.379703 157.14044 65.871209 156.60986 65.518478 C 156.07252 65.161255 155.50782 64.983224 154.91539 64.984144 z M 154.91487 66.433151 C 155.91499 66.416175 156.74804 67.067078 156.79021 67.488384 C 156.79306 67.516952 156.87632 68.306145 156.94834 68.990101 C 156.67332 68.911998 156.35235 68.846324 155.99232 68.812334 C 155.17628 68.735291 154.1587 68.8276 153.14598 69.325998 C 153.02703 67.926091 153.03446 67.648278 153.18888 67.278577 C 153.33052 66.939592 153.86402 66.58088 154.20277 66.562342 L 154.20328 66.562342 L 154.20328 66.561825 C 154.20366 66.561804 154.20394 66.561845 154.20432 66.561825 C 154.44489 66.475977 154.68442 66.437063 154.91487 66.433151 z M 169.50726 71.125371 C 169.88505 71.125371 170.10958 71.275732 170.30514 71.658672 C 170.4169 71.877524 170.43692 71.989386 170.43692 72.392477 C 170.43692 72.654226 170.40502 72.978067 170.36612 73.111813 C 170.27392 73.428933 169.95899 73.841153 169.69485 73.990829 C 169.23313 74.252337 168.71794 74.087681 168.43807 73.58982 C 168.03236 72.868127 168.28878 71.76284 168.97293 71.284534 C 169.16271 71.151818 169.25258 71.125371 169.50726 71.125371 z M 176.7616 73.793942 C 176.88367 73.804572 177.00792 73.831224 177.13263 73.875074 C 177.90019 74.145878 178.22588 75.203688 177.80288 76.050652 C 177.63102 76.394754 177.24717 76.73076 176.91146 76.830449 C 176.50905 76.949898 176.23846 76.935191 175.92134 76.777222 C 175.4031 76.518967 175.14562 76.066917 175.15188 75.425884 C 175.16188 74.426458 175.90714 73.719238 176.7616 73.793942 z M 170.36974 75.116342 C 170.87018 75.114542 171.65314 75.526813 171.82236 75.88167 C 171.89516 76.034372 171.89713 76.075724 171.83683 76.14832 C 171.74003 76.265019 171.34441 76.460797 170.99554 76.564316 C 170.83758 76.611184 170.69528 76.647754 170.67876 76.645964 C 170.43404 76.618734 170.20071 76.253745 170.07002 75.693568 C 169.96201 75.230567 170.0204 75.118128 170.36974 75.116342 z M 154.05911 80.552186 A 0.68599999 0.68599999 0 0 1 154.40431 80.638485 C 156.66631 81.89064 157.03181 85.257527 155.04509 87.003988 A 0.68599999 0.68599999 0 0 1 154.31801 87.111992 L 154.35108 87.448922 C 154.32173 87.457898 154.29825 87.441325 154.28958 87.356938 C 154.27539 87.218739 154.27854 87.185141 154.2715 87.089254 A 0.68599999 0.68599999 0 0 1 154.07616 86.94146 A 0.68599999 0.68599999 0 0 1 154.13869 85.974594 C 155.37935 84.883971 155.10756 82.596819 153.74026 81.839962 A 0.68599999 0.68599999 0 0 1 153.47051 80.906169 A 0.68599999 0.68599999 0 0 1 154.05911 80.552186 z M 157.56639 91.588205 C 158.07955 91.586216 158.52296 91.703365 158.92289 91.856922 L 157.85164 98.088066 L 155.51948 92.155612 C 156.29221 91.747508 156.97116 91.590511 157.56639 91.588205 z " />
    <path
       style="fill:#ffffff;stroke:none;stroke-width:1.572;stroke-miterlimit:1000;stroke-dasharray:none;paint-order:stroke markers fill"
       d="m 157.03012,69.777576 0.56851,5.403268 0.59867,0.124176 -0.0994,-3.258627"
       id="path6" />
  </g>
</svg>
